<?xml version="1.0" encoding="utf-8"?>
<!-- Generator: Adobe Illustrator 19.0.0, SVG Export Plug-In . SVG Version: 6.00 Build 0)  -->
<svg version="1.1" id="Layer_1" xmlns="http://www.w3.org/2000/svg" xmlns:xlink="http://www.w3.org/1999/xlink" x="0px" y="0px"
	 viewBox="113.5 -15.5 38 38" style="enable-background:new 113.5 -15.5 38 38;" xml:space="preserve">
<style type="text/css">
	.st0{fill:#FFFFFF;}
</style>
<g id="circles">
	<path class="st0" d="M125.5-1.3c1.2,0,2.1-1,2.1-2.1c0-1.2-1-2.1-2.1-2.1c-1.2,0-2.1,1-2.1,2.1C123.4-2.3,124.3-1.3,125.5-1.3z
		 M131-4.9c0.8,0.8,2.2,0.8,3,0c0.8-0.8,0.8-2.2,0-3c-0.8-0.8-2.2-0.8-3,0C130.1-7,130.1-5.7,131-4.9z M137.3-3.5
		c0,1.2,1,2.1,2.1,2.1c1.2,0,2.1-1,2.1-2.1c0-1.2-1-2.1-2.1-2.1C138.3-5.6,137.3-4.7,137.3-3.5z M140.9,2c-0.8,0.8-0.8,2.2,0,3
		c0.8,0.8,2.2,0.8,3,0c0.8-0.8,0.8-2.2,0-3C143,1.1,141.7,1.1,140.9,2z M139.5,8.3c-1.2,0-2.1,1-2.1,2.1c0,1.2,1,2.1,2.1,2.1
		s2.1-1,2.1-2.1C141.6,9.3,140.7,8.3,139.5,8.3z M134,11.9c-0.8-0.8-2.2-0.8-3,0c-0.8,0.8-0.8,2.2,0,3c0.8,0.8,2.2,0.8,3,0
		C134.9,14,134.9,12.7,134,11.9z M127.7,10.5c0-1.2-1-2.1-2.1-2.1c-1.2,0-2.1,1-2.1,2.1s1,2.1,2.1,2.1
		C126.7,12.6,127.7,11.7,127.7,10.5z M124.1,5c0.8-0.8,0.8-2.2,0-3c-0.8-0.8-2.2-0.8-3,0c-0.8,0.8-0.8,2.2,0,3
		C122,5.9,123.3,5.9,124.1,5z"/>
</g>
</svg>
