<?xml version="1.0" encoding="utf-8"?>
<!-- Generator: Adobe Illustrator 19.0.0, SVG Export Plug-In  -->
<svg version="1.1"
	 xmlns="http://www.w3.org/2000/svg" xmlns:xlink="http://www.w3.org/1999/xlink" xmlns:a="http://ns.adobe.com/AdobeSVGViewerExtensions/3.0/"
	 x="0px" y="0px" width="38px" height="38px" viewBox="0 0 38 38" style="enable-background:new 0 0 38 38;" xml:space="preserve">
<style type="text/css">
	.st0{fill:url(#SVGID_1_);}
	.st1{fill:url(#SVGID_2_);}
</style>
<defs>
</defs>
<g>
		<linearGradient id="SVGID_1_" gradientUnits="userSpaceOnUse" x1="-357.3706" y1="322.1718" x2="-357.194" y2="322.5189" gradientTransform="matrix(31.3 0 0 27.6 11203.2998 -8885.3281)">
		<stop  offset="0" style="stop-color:#FFFFFF;stop-opacity:0"/>
		<stop  offset="0.2" style="stop-color:#FFFFFF;stop-opacity:0.5"/>
		<stop  offset="1" style="stop-color:#FFFFFF"/>
	</linearGradient>
	<path class="st0" d="M18.9,7c1.6,0,3.1,0.3,4.6,0.9c1.5,0.6,2.8,1.5,4,2.6c1.1,1.1,2,2.5,2.7,4C30.7,16,31,17.4,31,19
		s-0.3,3-0.8,4.5c0,0.1-0.1,0.2-0.2,0.3c-0.1,0.1-0.1,0.2-0.2,0.2c-0.3,0.3-0.6,0.4-1,0.4s-0.8-0.1-1-0.4c-0.4-0.4-0.5-0.9-0.3-1.6
		c0.6-1.3,0.9-2.6,0.9-4.1s-0.2-2.8-0.7-4.2s-1.3-2.6-2.4-3.7c-1.3-1.3-2.7-2.1-4.4-2.6c-1.6-0.5-3.4-0.6-5-0.3
		c-1.7,0.3-3.3,1.1-4.7,2.1c1.1-0.9,2.3-1.6,3.7-2.1C16.2,7.3,17.5,7,18.9,7L18.9,7z"/>
	
		<linearGradient id="SVGID_2_" gradientUnits="userSpaceOnUse" x1="-381.9709" y1="300.8674" x2="-381.7943" y2="301.2144" gradientTransform="matrix(-31.3 0 0 -27.6 -11935.2998 8335.3281)">
		<stop  offset="0" style="stop-color:#FFFFFF;stop-opacity:0"/>
		<stop  offset="0.2" style="stop-color:#FFFFFF;stop-opacity:0.5"/>
		<stop  offset="1" style="stop-color:#FFFFFF"/>
	</linearGradient>
	<path class="st1" d="M19.1,31c-1.6,0-3.1-0.3-4.6-0.9s-2.8-1.5-4-2.6s-2-2.5-2.7-4C7.3,22,7,20.6,7,19s0.3-3,0.8-4.5
		c0-0.1,0.1-0.2,0.2-0.3C8.1,14.1,8.1,14,8.2,14c0.3-0.3,0.6-0.4,1-0.4s0.8,0.1,1,0.4c0.4,0.4,0.5,0.9,0.3,1.6
		c-0.6,1.3-0.9,2.6-0.9,4.1c-0.1,1.4,0.2,2.8,0.7,4.2s1.3,2.6,2.4,3.7c1.3,1.3,2.7,2.1,4.4,2.6c1.6,0.5,3.4,0.6,5,0.3
		c1.7-0.3,3.3-1.1,4.7-2.1c-1.1,0.9-2.3,1.6-3.7,2.1C21.8,30.7,20.5,31,19.1,31L19.1,31z"/>
</g>
</svg>

