<?xml version="1.0" encoding="utf-8"?>
<!-- Generator: Adobe Illustrator 19.0.0, SVG Export Plug-In . SVG Version: 6.00 Build 0)  -->
<svg version="1.1" id="Layer_1" xmlns="http://www.w3.org/2000/svg" xmlns:xlink="http://www.w3.org/1999/xlink" x="0px" y="0px"
	 viewBox="1186 -15.5 38 38" style="enable-background:new 1186 -15.5 38 38;" xml:space="preserve">
<style type="text/css">
	.st0{fill:#FFFFFF;}
</style>
<path class="st0" d="M1216.1-1.2c-0.8-1.8-1.9-3.3-3.4-4.4c-1.5-1.1-3.1-1.8-5-2.1c-0.7-0.1-1.5-0.1-2.2-0.1
	c1.2,0.1,2.3,0.3,3.3,0.8c0.9,0.3,1.7,0.8,2.5,1.4c1.3,1,2.3,2.3,3,3.9c0.5,1.2,0.8,2.5,0.8,3.8c0,1.3-0.2,2.5-0.7,3.7
	c-0.5,1.2-1.1,2.3-2,3.3c-1.1,1.2-2.4,2.1-4,2.7c-1.6,0.6-3.2,0.7-4.7,0.4c-1.7-0.3-3.1-1.1-4.3-2.3c-1.1-1.1-1.8-2.4-2.2-3.9
	c-0.4-1.5-0.3-2.9,0.1-4.4c0.4-1.5,1.2-2.9,2.3-4.1c0.1-0.1,0.3-0.3,0.4-0.5c0.2-0.4,0.3-0.9,0.2-1.4c-0.1-0.5-0.3-0.9-0.6-1.3
	c-0.4-0.4-0.8-0.6-1.3-0.6c-0.5-0.1-1,0.1-1.4,0.3c-0.2,0.1-0.4,0.4-0.7,0.7l-0.1,0.1c-1.4,1.6-2.2,3.4-2.7,5.4
	c-0.4,2-0.3,4,0.2,5.9c0.6,2,1.6,3.8,3.1,5.3c1.1,1.1,2.4,1.9,3.9,2.6c1.4,0.6,3,0.9,4.5,1c1.6,0,3.1-0.2,4.5-0.7
	c1.5-0.6,2.8-1.4,3.9-2.5c0.3-0.3,0.6-0.7,0.9-1c0.9-1.1,1.5-2.3,2-3.6c0.4-1.3,0.7-2.7,0.6-4.1C1217,1.5,1216.7,0.1,1216.1-1.2z"/>
</svg>
